<svg height="256" preserveAspectRatio="xMidYMid" viewBox="0 0 256 256" width="256" xmlns="http://www.w3.org/2000/svg"><path d="m63.1726152 0c-34.8659972 0-63.1726152 28.3051472-63.1726152 63.1708015v129.2546655c0 34.865606 28.3072169 63.171985 63.1726152 63.171985h129.2546508c34.865942 0 63.170198-28.306379 63.170198-63.171985v-129.2546655c0-34.8656543-28.303669-63.1708015-63.170198-63.1708015z" fill="#e40046"/><path d="m108.90221 127.708329h16.517078c1.94998-.039546 3.768999.978131 4.755584 2.66058.986584 1.682449.986584 3.766795 0 5.449244-.986585 1.682448-2.805604 2.700125-4.755584 2.660579h-62.1920868c-1.9499794.039546-3.768999-.978131-4.7555836-2.660579-.9865845-1.682449-.9865845-3.766795 0-5.449244.9865846-1.682449 2.8056042-2.700126 4.7555836-2.66058h34.0100601c.0163312-.03945.0331552-.078771.0504742-.117953l32.1868435-77.417419c.821325-1.9727458 2.731179-3.2734156 4.867664-3.315031 2.221557-.0414673 4.240597 1.2854756 5.083858 3.3411865l61.943134 151.0417145c.774566 1.788673.52235 3.856255-.659489 5.406274-1.181839 1.550018-3.108881 2.3406-5.038791 2.067198s-3.561535-1.568126-4.266341-3.385417l-56.996857-138.9740684zm-15.068817 36.340384c-.0191506.048028-.0390258.095868-.059627.143504l-17.1084486 41.159246c-.725022 1.797176-2.3595832 3.066343-4.2803544 3.323514-1.9207712.25717-3.8316317-.537304-5.0038874-2.080455s-1.4251827-3.597075-.662329-5.378522l15.4491414-37.167288h-30.3269558c-1.9498413.039327-3.7686369-.9784-4.7550872-2.660763-.9864503-1.682362-.9864503-3.766538 0-5.4489.9864503-1.682363 2.8052459-2.700091 4.7550872-2.660764l62.1986388-.000024c1.949703-.039107 3.768273.978673 4.754588 2.660948.986316 1.682276.986316 3.76628 0 5.448555-.986315 1.682276-2.804885 2.700055-4.754588 2.660948h-20.2061767z" fill="#fff"/></svg>